<?xml version="1.0" encoding="UTF-8"?>
<svg version="1.1" viewBox="0 0 1080 1080" width="270" height="270" xmlns="http://www.w3.org/2000/svg">
<path transform="translate(526,60)" d="m0 0h29l22 1 36 4 31 6 32 8 36 12 25 10 25 12 23 12 21 13 20 14 17 13 13 11 11 9 13 13 8 7 7 8 11 12 9 11 14 18 12 17 12 19 14 25 8 15 13 29 13 35 7 24 8 33 4 21 3 23 1 16v62l-3 31-4 25-5 25-8 30-11 33-12 29-11 23-10 18-13 21-8 11-10 14-11 14-10 11-7 8-7 7-7 8-8 8-8 7-13 12-10 8-17 13-23 16-25 15-32 17-22 10-27 10-19 6-32 8-27 5-30 4-33 3h-44l-41-4-33-5-34-8-29-9-25-9-29-13-20-10-27-16-24-16-16-12-16-13-14-12-8-8-8-7-4-5-15-15-9-11-11-13-14-19-12-19-12-20-13-25-11-25-14-39-8-28-6-26-5-32-3-29v-68l4-35 6-32 9-35 11-32 8-20 10-22 10-19 16-27 17-25 13-17 13-16 9-10 7-7 7-8 12-12 8-7 15-13 16-12 18-13 22-14 16-9 28-15 25-11 34-12 30-9 26-6 30-5 29-3zm-9 60-39 4-31 6-27 7-26 8-28 11-35 17-20 11-17 11-18 13-13 11-10 9-13 12-10 10v2h-2l-7 8-14 17-10 13-9 13-12 19-12 21-8 16-8 17-11 29-8 26-6 26-4 23-4 37v51l3 31 4 26 6 27 9 30 10 27 11 24 11 21 13 21 11 16 11 14 12 14 7 8 9 10 14 14 8 7 11 10 10 8 15 11 19 12 26 15 25 12 33 13 25 8 31 8 22 4 31 3 14 1h51l38-3 25-4 28-7 25-8 22-8 21-9 22-11 22-13 14-9 18-13 14-11 16-15 13-12 11-11v-2h2l7-8 9-10 13-17 14-21 11-19 12-23 9-20 9-24 8-26 6-25 5-31 3-25v-71l-4-34-6-31-7-25-11-31-11-25-11-22-14-24-16-24-11-14-11-13-12-13-22-22-8-7-17-14-17-12-20-13-16-9-23-12-25-11-28-10-28-8-32-7-19-3-32-3z" fill="#112F41"/>
<path transform="translate(321,218)" d="m0 0h439l14 3 12 5 12 8 12 11 9 13 5 11 3 10 1 7v492l-2 18-6 22v8l-3 8-2 9-8 11-10 9-9 5-9 4-15 4-13 1h-247l-98-1-65-2-27-2-14-3-10-4-11-7-8-7-7-15-1-7 1-4-8-20-3-13-1-15v-491l4-16 4-10 10-15 9-9 15-10 12-5zm410 20-19 3-22 7-345 1-18 2-12 6-9 9-6 11-3 11v70l3 15 6 12 9 9 8 5 10 3 5 1 318 1h56l30-1 13-3 9-5 8-7 4-5 4-9 2-8 1-9v-69l-3-12-4-8-8-9-6-4-6-10-9-6-5-1zm-394 188-12 2-10 6-7 7-5 11-1 6v9l4 11 6 8 7 6 8 3 5 1h415l9-2 11-7 7-9 3-8 1-5v-8l-3-10-8-11-9-6-7-3-10-1zm257 94-17 5-12 6-9 7-10 10-9 15-5 15-1 113v63l1 19 4 14 8 15 11 12 13 9 12 5 14 3h16l14-3 12-6 10-8 10-10 6 8 13 10 14 6 14 3h15l16-4 14-7 12-11 8-9 8-15 4-13 1-9v-176l-2-16-8-16-8-11-11-10-11-7-13-5-9-2h-20l-15 4-14 7-11 9-2 3-4-2-9-8-12-7-11-4-11-2zm-271 8-8 5-4 8v19l4 9 5 4h60l5-3 3-4 2-14-1-14-4-6-8-4zm111 0-8 4-4 5-2 8v12l2 8 7 8h62l5-3 4-8v-22l-4-6-6-5-3-1zm-113 65-6 4-4 8v19l3 7 4 5 10 2h48l7-2 5-6 2-8v-13l-3-10-6-5-3-1zm112 0-7 3-4 5-2 5v18l4 8 6 5 4 1h54l8-4 4-7 1-17-2-8-6-7-5-2zm-107 63-9 3-5 6-1 4v19l3 7 6 6h58l6-3 4-4 2-8v-11l-1-9-4-6-5-3-10-1zm154 0-48 1-6 3-4 5-2 5v15l2 7 4 6 5 3h60l6-5 3-6v-23l-6-8-4-2zm-157 68-8 5-4 6v59l1 7 7 8 5 1h57l6-4 2-4 1-6v-59l-3-6-5-5-4-2zm113 0-9 3-4 4-3 8v59l3 7 6 5 9 1 52-1 8-5 2-3v-66l-6-9-6-3z" fill="#112F41"/>
<path transform="translate(597,546)" d="m0 0h15l12 5 9 6 7 9 6 14 2 16v19l-4 1-7 1-5 7 2 7 5 5 9-1v27l-3 20-4 21-1 9v60l-2 8-5 9-7 7-11 6-16 2-13-2-12-6-10-10-6-12-2-9v-54l-4-35v-8l10 1 5-4 1-8-2-5-4-1h-9l-2-1v-17l5 2 4 1 7-4 2-7-2-5-6-4h-9l-1-5 1-16 3-12 7-14 9-10 7-6 11-5zm10 21-4 5-1 8 2 4 10 5 8-7 2-6-4-7-4-2zm-25 4-7 6v7l5 6 4 2 4-1 7-6 1-6-3-6-4-2zm16 17-6 3-3 5 1 6 3 5 4 2h6l5-4 2-6-1-5-5-5zm26 5-6 4-3 3 1 7 5 6 8 1 6-4 2-4-1-7-5-5zm-55 2-6 5-1 6 3 6 7 4 6-1 5-6 1-6-3-6-3-2zm34 81-10 4-6 5-6 10-3 8-1 9 2 10 4 8 11 11 6 3 7-1 10-5 3-3v-6l-4-5-6-1-8 4-3-1-5-10v-10l4-8 5-5h11l6-2 1-9-6-5-3-1zm-22 79-4 4v5l9 10 9 8 6 1 8-5 9-8v-2h2l3-7-4-6h-7l-9 7-2 3-4-1-8-9z" fill="#112F40"/>
<path transform="translate(526,60)" d="m0 0h29l22 1 36 4 31 6 32 8 36 12 25 10 25 12 23 12 21 13 20 14 17 13 13 11 11 9 13 13 8 7 7 8 11 12 9 11 14 18 12 17 12 19 14 25 8 15 13 29 13 35 7 24 8 33 4 21 3 23 1 16v62l-3 31-4 25-5 25-8 30-11 33-12 29-11 23-10 18-13 21-8 11-10 14-11 14-10 11-7 8-7 7-7 8-8 8-8 7-13 12-10 8-17 13-23 16-25 15-32 17-22 10-27 10-19 6-32 8-27 5-30 4-33 3h-44l-41-4-33-5-34-8-29-9-25-9-29-13-20-10-27-16-24-16-16-12-16-13-14-12-8-8-8-7-4-5-15-15-9-11-11-13-14-19-12-19-12-20-13-25-11-25-14-39-8-28-6-26-5-32-3-29v-68l4-35 6-32 9-35 11-32 8-20 10-22 10-19 16-27 17-25 13-17 13-16 9-10 7-7 7-8 12-12 8-7 15-13 16-12 18-13 22-14 16-9 28-15 25-11 34-12 30-9 26-6 30-5 29-3zm7 3-48 3-36 6-24 5-23 6-37 13-36 15-14 8-11 6-16 9-8 6-7 4-5 3v2l-4 2-15 10-16 13-2 1v2l-4 2-13 10-29 29-7 8-6 8-13 16-6 7-6 9-7 11-10 15-14 25-7 12-4 11-8 16-6 15-4 9-7 22-9 34-6 29-5 37-1 23v56l3 22 2 15 4 23 4 16 4 14 4 18h2l2 9 3 8 7 17 4 10 16 34 10 18 11 17 9 14 12 17 14 17 11 12 38 38 22 18 11 8 14 10 19 12 22 13 19 10 25 11 31 12 28 8 45 10 32 4 35 3 36 1 42-4 40-7 35-9 39-12 24-10 9-5 10-4 14-8 12-6 33-21 12-9 14-10 11-9 8-7 12-10 5-5 10-11 8-7 9-10 9-11 10-12 7-11 8-11 11-17 6-10 12-22 9-19 10-24 6-17 8-24 6-23 8-40 3-19 2-28v-54l-2-23-5-32-3-16-8-32-11-33-7-18-11-25-9-17-6-12-7-12-10-15-7-11-9-12-7-9-9-11-4-6h-2l-2-4-11-12-28-28-11-9-14-12-17-13-16-10-14-9-16-9-30-15-20-9-20-8-11-4-24-7-24-6-31-6-27-4-39-2z" fill="#070E15"/>
<path transform="translate(334,449)" d="m0 0h411l6 3 4 6v6l-5 7-3 2-37 1h-358l-19-1-7-6-1-2v-8l5-6z" fill="#102E40"/>
<path transform="translate(509,116)" d="m0 0h62l34 4 21 4 29 7 20 6 25 9 24 10 21 11 11 6 16 9 15 10 18 13 13 11 11 9 10 10 8 7 10 10 7 8 11 12 10 14 11 16 10 15 9 15 8 16 13 27 6 15 12 36 4 16 4 23 4 40v29l-2-3-1-24-4-34-6-31-7-25-11-31-11-25-11-22-14-24-16-24-11-14-11-13-12-13-21-21-8-7-17-14-17-12-20-13-16-9-23-12-25-11-28-10-28-8-32-7-19-3-32-3h-46l-39 4-31 6-27 7-26 8-28 11-35 17-20 11-17 11-18 13-13 11-10 9-13 12-9 9-1 2h-2l-2 4-10 11-8 10-10 13-9 13-12 19-12 21-8 16-8 17-11 29-8 26-6 26-4 23-4 37v51l3 31 4 26 6 27 9 30 10 27 11 24 11 21 13 21 11 16 11 14 12 14 7 8 9 10 13 13 8 7 11 10 10 8 15 11 19 12 26 15 25 12 33 13 25 8 31 8 22 4 31 3 14 1h51l38-3 25-4 28-7 25-8 22-8 21-9 22-11 22-13 14-9 18-13 14-11 16-15 13-12 10-10 1-2h2l2-4 8-8 11-14 9-12 12-18 11-19 12-23 9-20 9-24 8-26 6-25 5-31 3-25 2-31h1l1 29-3 32-6 34-8 31-10 30-5 13-10 19-8 16-6 9-6 12-24 33-9 10-9 12h-2v2h-2l-1 3-8 7-29 29-11 9-19 14-18 12-21 12-17 9-25 11-32 12-21 6-32 7-16 3-33 4h-63l-19-2-29-4-17-3-35-9-36-12-15-6-11-5-16-8-13-7-10-6-11-6-17-11-14-11-11-9-17-16-23-23-7-9-9-10-7-8-8-12-5-7-4-7-4-5-3-5-9-14-11-23-9-19-9-24-11-36-4-16-4-20-3-26-1-63 1-23 3-25 3-16 2-11 8-32 12-36 11-24 8-16 6-10 4-8 9-15 11-16 7-9 10-13 9-11 7-7 7-8 13-13 8-7 10-9 14-11 17-13 10-7 9-6 20-11 23-11 23-10 29-10 31-9 16-4 39-6z" fill="#070F16"/>
<path transform="translate(819,815)" d="m0 0 1 3v8l-3 8-2 9-8 11-10 9-9 5-9 4-15 4-13 1h-247l-98-1-65-2-27-2-14-3-10-4-11-7-8-7-7-15-1-7 1-4 1-2 11 13 13 10 14 7 11 3 10 1h434l18-4 16-8 10-8 7-7z" fill="#C2D8E4"/>
<path transform="translate(703,647)" d="m0 0 14 1 11 3 10 7 7 7 5 11 2 9v82l-2 10-5 9-9 10-12 6-9 2-16-1-10-4-8-6-7-8-4-9-1-4-1-64-2-17v-19l4-8 7-8 10-6zm4 24-16 14-3 4 2 5 3 4 6-1 9-6 3-3 8 7 6 4 5-2 3-3v-5l-9-10-10-8zm-13 50-5 5v5l5 5 9 6 4 2 9-1 12-6 5-6-1-7-5-3-7 2-9 5-5-2-8-5zm0 33-5 5-1 5 11 12 9 7 7-1 6-4 12-12 1-6-3-5h-8l-10 9-3 2-5-6-6-5z" fill="#112E40"/>
<path transform="translate(735,263)" d="m0 0h5l2 3 2 15v14l-3 18-3 11 14 2 9 3 1 5-7 16-7 9-7 8-10 7-13 5h-18l-8-4-4-3-1-6 7-6 26-9 14-7 3-3v-5l-4-3-10 1-28 9h-4l1-6 8-16 8-11 11-12 1-5-3-4h-7l-9 7-8 8-9 14-5 11-3 9-1 13-2 5-5-1-7-8-5-11-1-12 2-12 6-12 8-10 12-10 16-8 23-7z" fill="#112E40"/>
<path transform="translate(706,545)" d="m0 0 13 1 11 4 8 5 7 6 6 8 7 13 4 20v11l-1 4-10-1-7 6 1 9 5 4 5 1 3-3 4 1 1 18h-4l-10-10-13-8-10-4-8-2h-21l-11 3-9 4-12 7-2 1v-19l3-1 7-1 4-5-1-5-3-6-9-2-2-2 2-19 5-14 8-11 9-7 13-5zm-11 22-5 6-1 6 3 5 4 3 5 1 7-4 2-3-1-9-5-5zm28 4-5 5-2 5 3 6 4 4 7 1 7-6v-9l-5-5zm-12 17-6 4-2 2v8l3 5 4 2 9-1 5-6v-5l-5-6-7-3zm-28 2-4 2-3 4v6l4 6 4 2 7-1 6-7-1-7-5-5zm52 5-5 5-1 7 3 5 5 3h6l5-3 2-3-1-9-3-4-3-1z" fill="#091119"/>
<path transform="translate(733,234)" d="m0 0h9l12 6 13 12 7 8 7 10 5 11v76l-1 13-5 13-11 13-14 8-9 2-15 1-296 1h-56l-36-1-17-3-12-6-6-5-9-12-5-15-2-17v-60l3-14 4-8 9-10 5-4 6-4 9-3 7-1 30-1 320-1 17-3 16-4zm-2 4-19 3-22 7-345 1-18 2-12 6-9 9-6 11-3 11v70l3 15 6 12 9 9 8 5 10 3 5 1 318 1h56l30-1 13-3 9-5 8-7 4-5 4-9 2-8 1-9v-69l-3-12-4-8-8-9-6-4-6-10-9-6-5-1z" fill="#081119"/>
<path transform="translate(597,546)" d="m0 0h15l12 5 9 6 7 9 6 14 2 16v19l-4 1-7 1-5 7 2 7 5 5 9-1v27l-3 20-4 21-1 9v60l-2 8-5 9-7 7-11 6-16 2-13-2-12-6-10-10-6-12-2-9v-54l-4-35v-8l4 1v4l2 1-1 1v10l2 15 2 69 3 9 6 8 8 7 10 5 3 1h16l11-4 9-7 5-7 2-5 1-18 1-49 4-26 2-12 2-30-7-2-5-5-4-6-2-10-4-3-5-2-8-8v-10l-5-5-6-1-6 2-2 5v8l2 6-5-1-4 7-5 1 3-5 3-1-2-11-4-4h-9l-5 4-1 6 2 5 7 4v2l4 1-5 2v3h-2l-4-5-4-2h-9l-1-5 1-16 3-12 7-14 9-10 7-6 11-5zm10 21-4 5-1 8 2 4 10 5 8-7 2-6-4-7-4-2zm-25 4-7 6v7l5 6 4 2 4-1 7-6 1-6-3-6-4-2zm42 22-6 4-3 3 1 7 5 6 8 1 6-4 2-4-1-7-5-5z" fill="#071017"/>
<path transform="translate(376,421)" d="m0 0h315l52 1 14 3 9 5 7 6 6 10 2 10-2 1-1-5h-2l-5-10-5-6-10-6-5-2-10-1h-404l-12 2-10 6-7 8-4 9-1 6v9l4 11 6 8 6 5 8 3 5 1h415l9-2 11-7 7-10 2-6h2l1-6h1v8l-2 8-7 9-10 6-8 3-15 1-47 1-70-1-31 1-261-1-10-3-11-8-8-11-3-9v-13l4-11 6-9 9-8 10-4 5-1z" fill="#070E14"/>
<path transform="translate(590,516)" d="m0 0h26l13 4 17 10 8 7 4-1 4-4 15-10 17-6h26l10 2 12 5 10 6 13 11 11 15 4 10 3 9v194l-4 17-2 3h-2l2-9 2-7 1-9v-176l-2-16-8-16-8-11-10-9-11-7-13-5-9-2h-20l-15 4-14 7-10 8-3 4-4-2-9-8-12-7-11-4-11-2h-16l-17 5-12 6-9 7-9 9-9 15-5 15-1 113v63l1 19 4 14 8 15 10 11 13 9 12 5 14 3h16l14-3 12-6 10-8 4-2 2-4 4-4 6 8 13 10 14 6 14 3h15l16-4 14-7 12-11 7-8 3-5h2l-1 4-5 8h-2l-2 4-5 5-9 7-8 5-7 3-10 2h-22l-12-2-12-5-14-10-5-4v-2h-5l-10 10-10 7-12 5-14 2-18-1-16-4-14-7-12-10-8-10-7-14-4-12-1-31v-134l1-36 4-13 5-9 8-10 10-10 13-9 17-7z" fill="#070F16"/>
<path transform="translate(694,219)" d="m0 0h73l15 5 12 7 11 9 8 9 7 11 5 12 3 14v492l-2 18-5 18-7 10-2 3h-2v-4h2l1-4 4-7 3-9 2-13 1-16v-480l-1-13-5-15-7-13-7-9-11-10-15-8-14-3-37-1-109-1v-1z" fill="#050B12"/>
<path transform="translate(482,269)" d="m0 0h24l10 2 6 4 5 6 2 9v16l-3 9-5 5-2 1 2 4 6 8 2 8v18l-3 10-7 9-1 1h-6l-3-4 1-8 1-2 1-33h-17l-6-2-3-5v-5l3-4 4-1 19-1v-28h-33l-5-5-2-4 1-5 3-2z" fill="#060D13"/>
<path transform="translate(748,452)" d="m0 0h3l4 6v6l-5 7-3 2-37 1h-358l-19-1-6-5 1-8h2l2 7 80 1h336z" fill="#0B131B"/>
<path transform="translate(560,313)" d="m0 0h37l6 4 5 4 5 8 1 13v18l-2 7-6 8-7 4-16 1h-28l-6-2 1-5 4-5 7-4 35-1 1-35h-36l-6-5-1-4 5-5z" fill="#0B1219"/>
<path transform="translate(335,219)" d="m0 0h116l22 1v1l-27 1-83-1-8 1-33 1-13 2-11 4-14 9-4 4h-2l-2 4-8 9-8 14-3 8-1 32-1 483h-2l-1-15v-491l4-16 4-10 10-15 9-9 15-10 12-5z" fill="#08151F"/>
<path transform="translate(401,324)" d="m0 0 6 2 2 3v35h32v-35l2-3 9-1 4 3 1 4v30l-3 7-7 8-4 2h-36l-5-3-6-7-3-7v-30l3-5z" fill="#080F16"/>
<path transform="translate(413,269)" d="m0 0h25l9 3 6 5 3 6 1 5v21l-2 5-2 1h-9l-3-4v-26l-30 1-1 5-1 21-3 3-7 1-4-2-2-8v-19l4-9 7-6z" fill="#102D3E"/>
<path transform="translate(601,549)" d="m0 0h7l12 4 9 6 8 10 4 8 3 7v27h-3l-2-8-5-10-8-4h-5l2-7-1-2 2-2v2h2l-2-9-5-5-2-1h-11l-4 4-4 5-4-2-2-3h-11l-6 2-2 5v14l-9 4-3 6-1 7-1-3h-2l1 8-2-1v-20l4-12 3-6h2l2-5 9-9 9-5 10-4z" fill="#102E40"/>
<path transform="translate(701,549)" d="m0 0h16l12 4 15 12 8 14 3 7 1 9v14l-1 2h-2l-1-12-5-6-10-3 3-4-3-1v-10l-1-5-3-1h-13l-2 3h-2l-1 2h-2l-3-7-8-5-7 1-8 6-2 3v7l1 6-7 3-7 8-1-2h-2v5h-1v-20l8-12 3-4h2l2-4 8-6 6-3z" fill="#102E40"/>
<path transform="translate(735,263)" d="m0 0h5l2 3 2 15v14l-3 18-2 6h-3l-2 5-1-2 5-17 2-37h-9l-12 2-17 5-12 6-11 8-9 10-7 11-3 10-1 18 5 4 5 5 4-19 8-16 8-11 8-9 9-7 2-1h8l5 5 3 5-1 4-11 13-7 10-6 11v3l10-2 16-5 6-1 5 1v2l2 1 1 5-4-2-7-1-21 6-12 4h-4l1-6 8-16 8-11 11-12 1-5-3-4h-7l-9 7-8 8-9 14-5 11-3 9-1 13-2 5-5-1-7-8-5-11-1-12 2-12 6-12 8-10 12-10 16-8 23-7z" fill="#060D14"/>
<path transform="translate(703,647)" d="m0 0 14 1 11 3 10 7 7 7 5 11 2 9v82l-2 10-5 9-9 10-12 6-9 2-16-1-10-4-8-6-7-8-2-4v-6l3 3 3 6 5 7 16 8h21l14-7 8-9 4-10 1-6v-80l-2-11-4-8-6-7-12-8-18-2-16 3-8 4-8 8-2 8v53l-1 41h-1l-1-60-2-17v-19l4-8 7-8 10-6z" fill="#060E15"/>
<path transform="translate(433,720)" d="m0 0h51l9 2 8 7 1 2 1 10 1 40v15l-2 9-7 6-3 2-9 1h-48l-10-2-6-4-3-7v-67l4-7 7-5zm3 4-9 3-4 4-3 8v59l3 7 6 5 9 1 52-1 8-5 2-3v-66l-6-9-6-3z" fill="#0D161E"/>
<path transform="translate(576,314)" d="m0 0h13l10 4 8 6 1 12v29l-2 5-8 4-5 1h-38l1-5 40-1v-42l1-3h-35l-1-1v-6l1-2z" fill="#123042"/>
<path transform="translate(482,269)" d="m0 0h24l8 1v3l8 6 1 4v27l-1 3-6 3h-2l1 3h-2l-2-2-18-1v-1l19-1v-28h-33l-5-5-2-4 1-5 3-2z" fill="#163446"/>
<path transform="translate(696,602)" d="m0 0 1 2h4l4 4 5 2 8 1 2-5 6 3 5 5 7 4 1 1 1 11-6-1-15-4-15-1-16 2-13 5-6 3-3-1 4-6 2-4h3l6-8-1-7 7 1 5-2z" fill="#112F41"/>
<path transform="translate(558,269)" d="m0 0h41l8 1 2 5-4 7-5 4h-42l-8-7-1-7 3-2z" fill="#1A3849"/>
<path transform="translate(443,326)" d="m0 0h2v3l7 2v28l-2 8-7 6-6 2-20 1-9-2-6-4-4-8 1-24 1-8 3-3 1 1v27l1 10 9 3 16 1 9-2 1-2-3-1h4v-35z" fill="#102D3E"/>
<path transform="translate(335,651)" d="m0 0h23l23 2 8 5 3 9v5l-3-2-3-8-6-4-10-1h-44l-9 3-4 5-1 4v19l3 7 5 5h58l6-3 3-3 2-4 2 2v6l-3 3-5 2h-66l-7-6-2-5-1-8v-20l3-6 9-5z" fill="#09131B"/>
<path transform="translate(599,672)" d="m0 0h14l6 3 5 6v2l-5-2-4-3-3-1h-9l-10 4-5 4-6 10-3 8-1 9 2 10 4 8 10 10 6 3 7-1 10-5 2-2v-6l-5-5-7 1-5 3-5-5-3-4v-6l4 1v2h2l1 3 14 1 6 4 2 4 1 6-4 6-5 4-10 4-2 2-10-5-10-9-7-11-2-6v-17l4-12 7-9 9-7z" fill="#081018"/>
<path transform="translate(323,720)" d="m0 0h55l6 3 7 7 1 7h-3l-3-6-1-3-5-2-2-1h-55l-8 5-3 5v59l1 7 6 7v2l8 1 48 1v2h-43l-17-3-5-5-2-6-1-43 1-27 5-6z" fill="#060E16"/>
<path transform="translate(438,762)" d="m0 0h40l10 1 1 6-2 5-3 1h-49l-3-2v-8l2-2z" fill="#09121A"/>
<path transform="translate(436,652)" d="m0 0h48l10 3 6 5 3 6v24l-3 10-3 2-7 1h-28v-1l27-1 6-4 4-7v-23l-5-7-4-2-10-1-48 1-6 3-4 6-1 3v15l2 7 4 7-5-1-3-5-2-2-1-4v-17l2-8 5-5 6-4z" fill="#0C151D"/>
<path transform="translate(735,263)" d="m0 0h5l2 3 2 15v14l-3 18-2 6h-3l-2 5-1-2 5-17 2-37h-9l-12 2-17 5-12 6-11 8-9 10-7 11-3 10-1 15-2 4-2-10 1-13 5-13 9-12 10-9 14-8 21-7 14-3z" fill="#081018"/>
<path transform="translate(431,524)" d="m0 0h56l9 3 5 7 1 3v28l-2 6-4 3h-7l4-3 4-4 2-5v-22l-4-6-5-4-3-1h-53l-8 4-4 6-1 6v12l2 8 5 6v2l-5-2-1-5h-3v-2h-2l-1-2-1-12 2-13 4-6 7-6z" fill="#08111A"/>
<path transform="translate(335,219)" d="m0 0h116l22 1v1l-27 1-83-1-8 1-33 1-13 2-11 4-14 9-4 4h-2l-2 4-8 9-8 14-3 8-3 1 2-8 4-10 10-15 9-9 15-10 12-5z" fill="#081017"/>
<path transform="translate(437,588)" d="m0 0h34l16 1 10 5 4 6 2 11v13l-1 10-4 2 2-23-1-9-4-6-4-3-3-1h-55l-7 3-4 6-1 3v18l4 8 3 4h-5l-1-5-3-1-2-3v-25l2-6 8-6z" fill="#071018"/>
<path transform="translate(331,588)" d="m0 0h35l16 2 6 4 3 4 2 10-3-1v-3h-2l-3-6-4-3-3-1h-57l-5 3-4 8v19l3 7 5 5 1 3-7-1-6-7-1-6v-18l1-9 5-6 8-3z" fill="#071017"/>
<path transform="translate(322,524)" d="m0 0h50l9 2 8 5 2 4v6l-3-3-3-5-8-4h-54l-7 4-4 8v19l4 9 4 3 4 1v2h-7l-6-5-3-5-1-6v-23l4-6 5-4z" fill="#081018"/>
<path transform="translate(513,271)" d="m0 0 5 1 8 7 2 4 1 7v16l-3 9-5 5-2 1 2 4 1 3-31-1v-5l2-2 21-1v-3l5-3h3v-30l-1-4-8-6z" fill="#070E16"/>
<path transform="translate(346,746)" d="m0 0h8l2 1v40l-1 2-9 1-1-2v-41z" fill="#123042"/>
<path transform="translate(694,716)" d="m0 0 6 1 5 3 1 4 12-5 9-2 7 4 1 2v7l-3-4-2-3-5-1-14 7-5-2-8-5-6 1-2 3v5l2 4 4 2 11 6 9-1 12-6 5-4v3l-4 4-10 7-6 2v2h-2v-2h-6l-10-6-8-7-3-7 1-4 4-5z" fill="#091219"/>
<path transform="translate(751,327)" d="m0 0 8 1 3 2-1 7-8 16-12 14-10 7-13 5h-18l-8-4-4-3v-5h4l4 4 5 3 9 1 14-4 14-8 7-7 6-10 4-11 1-3-5-1-2-3z" fill="#060E15"/>
<path transform="translate(586,750)" d="m0 0 6 2 7 6 3-1 5-5 8-2 6 4 2 3-1 3-3-4h-7l-8 6-3 4-4-1-8-9h-8l-3 3v5l9 10 8 7 6 1 8-5 8-7 1-2h2l2-4 1 4-6 7-14 11-8 1-7-6-7-10-4-1-4-7v-6l5-4z" fill="#071017"/>
<path transform="translate(401,324)" d="m0 0 6 2 2 3v35h13l18 1-1 3-10 2-15-1-9-4-2-10v-27l-1 2h-2l-1 26-2 4-2-6 2-14v-8h-2l1-5z" fill="#070F17"/>
<path transform="translate(723,750)" d="m0 0h6l5 4 1 6h-2l-2-4h-8l-10 9-3 2-5-6-6-5-5-1-5 5 1 5 9 10 7 6 1 4-5-2-6-4-5-5-5-6-3-5 1-6 7-6h7l4 2h4l3 6 10-7z" fill="#070E16"/>
<path transform="translate(770,795)" d="m0 0h2l-1 4-5 8h-2l-2 4-5 5-9 7-8 5-7 3-10 2h-22l-12-2-12-5-14-10-5-4v-2h-5l-10 10-2-1 7-8h2l2-4 4-4 6 8 13 10 14 6 14 3h15l16-4 14-7 12-11 7-8z" fill="#09121A"/>
<path transform="translate(721,293)" d="m0 0 3 1-1 4-11 13-7 10-6 11v3l10-2 16-5 6-1 5 1v2l2 1 1 5-4-2-7-1-21 6-12 4h-4l1-6 8-16 8-11 11-12z" fill="#070E15"/>
<path transform="translate(400,275)" d="m0 0 2 2v3l-2 6v24l3 2v-15l1-12 1-2 3 1 1 5-1 25-5 2-7-1-2-3-1-6v-19l4-9z" fill="#050B11"/>
<path transform="translate(413,269)" d="m0 0h25l9 3 6 5 3 6 1 5v21l-2 5-2 1h-9l-1-1v-5h8v-30l-15-6-22-1-2-2z" fill="#0A131C"/>
<path transform="translate(709,667)" d="m0 0 10 2 9 6 6 8 1 2v10l-8 7-2-1 7-7v-5l-8-9-10-8h-7l-8 7-6 6h-2l-2 4-5 3v-6l9-10 10-7z" fill="#050C14"/>
<path transform="translate(603,270)" d="m0 0 5 1 1 4-4 7-5 4h-42l-8-7-1-5 5-1 3 6h2v2h44z" fill="#060F17"/>
<path transform="translate(514,330)" d="m0 0 8 1 1 1v34l-4 5-10 2 1-6 2-2-1 5 4-1 1-5-1-23z" fill="#122F41"/>
<path transform="translate(635,363)" d="m0 0h6l6 5v7l-4 5-7 1-6-4-2-2 1-7z" fill="#081017"/>
<path transform="translate(560,313)" d="m0 0h29v1l-13 1h-14v8l35 1-1 4h-35l-6-5-1-4 5-5z" fill="#050B12"/>
<path transform="translate(781,583)" d="m0 0h1l1 185-4 17-2 3h-2l2-9 2-7 1-9z" fill="#03080E"/>
<path transform="translate(347,549)" d="m0 0h7l4 2 2 5-1 6-4 4-5 1-5-3-4-6 2-6z" fill="#0C151D"/>
<path transform="translate(346,600)" d="m0 0h9l5 5-1 7-6 5-7-1-4-4-1-4z" fill="#091119"/>
<path transform="translate(457,549)" d="m0 0h7l5 4v8l-5 5h-7l-5-5v-7z" fill="#09131B"/>
<path transform="translate(679,357)" d="m0 0h5l2 3-1 5-8 13-3 3h-5l-2-2 1-5 5-10z" fill="#09121A"/>
<path transform="translate(687,724)" d="m0 0 4 1-1 1v5l2 4 4 2 11 6 9-1 12-6 5-4v3l-4 4-10 7-6 2v2h-2v-2h-6l-10-6-8-7-3-9z" fill="#0A141C"/>
<path transform="translate(349,662)" d="m0 0 6 1 4 4v8l-6 5-6-1-5-5 1-7z" fill="#08121A"/>
<path transform="translate(457,600)" d="m0 0h8l4 4v7l-5 5-4 1-5-2-3-5 1-6z" fill="#07111A"/>
<path transform="translate(349,746)" d="m0 0 7 1v40l-1 2-7 1 2-5v-36z" fill="#040B11"/>
<path transform="translate(461,662)" d="m0 0 5 2 3 4-1 7-5 5-6-1-4-4-1-5 3-6z" fill="#0C151D"/>
<path transform="translate(474,271)" d="m0 0 5 1-1 7-1 2h31l5 1v2l-10 1-2 1h-22l-5-5-2-4 1-5z" fill="#030A10"/>
<path transform="translate(493,320)" d="m0 0h26l1 4 2 4-31-1v-5z" fill="#133143"/>
<path transform="translate(367,219)" d="m0 0h84l22 1v1l-27 1-79-1z" fill="#03080E"/>
<path transform="translate(655,803)" d="m0 0 10 10 10 8 14 6 14 3-3 2h-8l-13-5-11-7-10-8v-2h-5l-10 10-2-1 7-8h2l2-4z" fill="#0A141C"/>
<path transform="translate(551,633)" d="m0 0 5 2 4 1h7l2 2-13 3v3h5v5h9l1 4-1 3-4-2v-2l-4-1h-9l-2-1z" fill="#0B141C"/>
<path transform="translate(440,767)" d="m0 0h14l12 1 12-1v2l4 2-4 2-39-1z" fill="#112F41"/>
<path transform="translate(513,333)" d="m0 0h2l1 8 1 24-2 5h-4l1-36z" fill="#051018"/>
<path transform="translate(739,340)" d="m0 0 3 1-5 6-16 8-10 4-1 1h-8v-3l18-6 14-7z" fill="#0A131B"/>
<path transform="translate(389,690)" d="m0 0 2 2v6l-3 3-5 2h-58v-1l51-1 8-4 3-3z" fill="#050E15"/>
<path transform="translate(394,329)" d="m0 0 1 3h2l1 10-2 12 1 5-2 6-2-3v-30z" fill="#163243"/>
<path transform="translate(412,280)" d="m0 0h23l7 2v2h-31l-1-3z" fill="#03080E"/>
<path transform="translate(420,364)" d="m0 0 20 1-1 3-10 2-15-1-4-2v-2z" fill="#060B11"/>
<path transform="translate(346,748)" d="m0 0 2 1v39h-3v-31z" fill="#03090F"/>
<path transform="translate(643,816)" d="m0 0m-2 1 2 1-4 5-10 6-12 4h-10l3-3 14-3 12-6z" fill="#081119"/>
<path transform="translate(710,687)" d="m0 0 5 3 7 6v2l-5-1-3-2-7 1-5 3-5 1v-3l10-6z" fill="#050D15"/>
<path transform="translate(734,762)" d="m0 0 1 4-3 6-8 8-12 6-2-2 10-6 12-12z" fill="#050F17"/>
<path transform="translate(694,716)" d="m0 0 6 1 5 3 1 6-8-4-6 1-7 2 3-5z" fill="#040B12"/>
<path transform="translate(603,692)" d="m0 0h10l6 2v1l-13 2-6 3-4 6h-1l1-7 4-5z" fill="#0D151D"/>
<path transform="translate(390,560)" d="m0 0h1v7l-3 5-4 3h-24v-1l18-1 6-3 3-4 2-5z" fill="#091118"/>
<path transform="translate(770,795)" d="m0 0h2l-1 4-5 8h-2l-2 4-5 5-4 3-2-1 7-8 9-10z" fill="#141F27"/>
<path transform="translate(963,495)" d="m0 0 2 2 1 8v29l-2-3z" fill="#091620"/>
<path transform="translate(781,760)" d="m0 0h2v8l-4 17-2 3h-2l2-9 2-7z" fill="#0A131A"/>
<path transform="translate(501,611)" d="m0 0h2v13l-1 10-4 2 2-23z" fill="#101B24"/>
<path transform="translate(394,284)" d="m0 0h2v16l-1 12h-1l-1-6v-19z" fill="#2A4758"/>
<path transform="translate(409,283)" d="m0 0 29 1v1l-27 1-1 5-1 21h-1v-28z" fill="#304C5D"/>
<path transform="translate(665,623)" d="m0 0 6 1-1 4-4 7-3-3v-8z" fill="#070E15"/>
<path transform="translate(501,559)" d="m0 0h1l-1 11-5 4h-7l4-3 4-4z" fill="#09131C"/>
<path transform="translate(513,287)" d="m0 0h1l1 10v16h-3z" fill="#03080E"/>
<path transform="translate(389,540)" d="m0 0 3 1-1 19-2 1z" fill="#182631"/>
<path transform="translate(398,338)" d="m0 0h1v18l-2 4-2-6 2-14z" fill="#03080E"/>
<path transform="translate(630,367)" d="m0 0 1 2 6 1 4-1 1 4-5 2-4-2-4-5z" fill="#112F41"/>
<path transform="translate(758,633)" d="m0 0 4 1 1 18h-4l-1-2h2v-16z" fill="#254253"/>
<path transform="translate(498,629)" d="m0 0h1l-1 8-3 2h-10l3-2 8-4z" fill="#162632"/>
<path transform="translate(393,344)" d="m0 0h1v10l3 1-1 8-2 2-1-3z" fill="#476373"/>
<path transform="translate(389,630)" d="m0 0 2 1-1 4-7 4-4-2 6-4h3z" fill="#040C13"/>
<path transform="translate(561,649)" d="m0 0h9l1 4-1 3-4-2v-2l-5-2z" fill="#0B1720"/>
<path transform="translate(694,360)" d="m0 0 5 1v7l-5-3-2-4z" fill="#030A10"/>
<path transform="translate(721,293)" d="m0 0 3 1-1 4-8 7v-3l5-6z" fill="#0B151D"/>
<path transform="translate(622,766)" d="m0 0 1 2-6 7-6 5-2-1z" fill="#03080E"/>
<path transform="translate(501,624)" d="m0 0h1v10l-4 2 1-9z" fill="#03090F"/>
<path transform="translate(605,607)" d="m0 0 1 3-5 2-7-2v-2h9z" fill="#030A11"/>
<path transform="translate(349,603)" d="m0 0 2 1v2l3 1-1 4h-4z" fill="#112F41"/>
<path transform="translate(389,804)" d="m0 0 1 3-5 4h-5l4-4z" fill="#040C13"/>
<path transform="translate(621,582)" d="m0 0 1 2-3 5-7 1-1-2 5-1z" fill="#112F41"/>
<path transform="translate(332,450)" d="m0 0h9v1l-9 1-2 4-2 1 1-5z" fill="#0B141B"/>
</svg>
